<?xml version="1.0" standalone="no"?>
<!DOCTYPE svg PUBLIC "-//W3C//DTD SVG 20010904//EN"
 "http://www.w3.org/TR/2001/REC-SVG-20010904/DTD/svg10.dtd">
<svg version="1.0" xmlns="http://www.w3.org/2000/svg"
 width="700.000000pt" height="700.000000pt" viewBox="0 0 700.000000 700.000000"
 preserveAspectRatio="xMidYMid meet">
<metadata>
Created by potrace 1.14, written by Peter Selinger 2001-2017
</metadata>
<g transform="translate(0.000000,700.000000) scale(0.100000,-0.100000)"
fill="#000000" stroke="none">
<path d="M510 3500 l0 -2990 2990 0 2990 0 0 2990 0 2990 -2990 0 -2990 0 0
-2990z m4865 2651 c50 -10 132 -29 183 -41 l92 -23 15 -51 c27 -96 46 -231 52
-376 5 -139 5 -146 -16 -164 -29 -26 -109 -33 -147 -13 -23 12 -37 32 -58 86
-59 149 -182 297 -289 346 -135 62 -306 34 -406 -67 -70 -71 -99 -189 -70
-291 16 -59 89 -157 160 -214 35 -28 129 -86 209 -129 412 -219 532 -320 636
-529 61 -124 77 -207 71 -370 -7 -178 -41 -279 -141 -411 -111 -148 -313 -262
-546 -309 -123 -25 -337 -30 -476 -11 -214 28 -416 100 -454 161 -51 82 -93
278 -106 487 l-7 116 28 26 c38 36 85 43 131 20 32 -16 42 -31 75 -108 93
-218 270 -404 442 -462 73 -26 214 -24 283 3 194 76 270 297 170 497 -69 139
-175 232 -417 363 -295 161 -426 275 -519 454 -52 100 -73 189 -72 314 0 204
55 339 197 481 76 76 105 97 185 137 94 46 201 79 315 97 94 14 375 4 480 -19z
m-2917 -61 c559 -28 886 -147 1138 -412 205 -217 314 -496 314 -807 0 -644
-401 -1120 -1051 -1250 -236 -47 -265 -48 -1188 -39 l-465 5 -15 22 c-8 13
-15 45 -15 72 0 72 19 87 141 109 110 20 136 31 153 69 26 57 31 254 28 1050
-5 883 -5 883 -58 923 -14 10 -52 23 -85 28 -104 18 -105 19 -121 57 -18 42
-12 91 14 122 15 19 34 23 182 32 91 6 300 14 465 18 165 4 316 8 335 9 19 1
122 -3 228 -8z m159 -2702 c23 -18 35 -86 23 -124 -14 -40 -28 -49 -94 -59
-70 -10 -78 -14 -70 -39 33 -106 688 -1556 704 -1556 4 0 41 71 82 158 147
305 161 347 138 418 -14 43 -330 744 -392 869 -60 122 -102 155 -196 155 -51
0 -82 37 -82 98 0 34 6 54 19 69 20 21 26 21 480 19 252 0 461 -3 464 -6 31
-35 36 -117 9 -151 -12 -14 -42 -28 -83 -38 -45 -11 -65 -21 -67 -33 -3 -16
87 -236 174 -423 l37 -80 49 105 c63 133 154 347 163 382 7 26 5 27 -72 43
-115 25 -114 24 -129 62 -16 37 -12 83 11 119 13 20 19 20 394 20 438 -1 415
4 415 -91 0 -75 -15 -88 -138 -115 -126 -28 -153 -52 -252 -220 -109 -184
-297 -563 -297 -598 0 -17 43 -122 97 -238 53 -115 125 -271 159 -346 34 -76
65 -138 68 -138 5 0 308 720 464 1104 67 164 146 396 139 408 -3 4 -41 19 -85
32 -45 14 -87 33 -95 43 -25 33 -14 133 18 154 4 3 175 5 379 4 352 -1 372 -2
385 -20 14 -19 18 -46 14 -95 -3 -49 -22 -62 -125 -87 -144 -34 -151 -40 -233
-201 -89 -173 -643 -1472 -809 -1897 -31 -77 -62 -148 -70 -157 -20 -22 -116
-42 -166 -34 -71 12 -91 31 -132 130 -56 132 -312 712 -334 754 l-19 36 -25
-49 c-53 -106 -268 -567 -322 -690 -31 -71 -63 -138 -72 -147 -20 -22 -115
-42 -167 -34 -78 12 -92 28 -156 181 -139 334 -879 1949 -931 2030 -33 51 -63
68 -165 89 -85 18 -99 32 -99 100 0 99 -36 93 508 93 297 0 477 -3 484 -9z"/>
<path d="M2147 5846 c-21 -8 -42 -17 -45 -21 -4 -4 -7 -408 -7 -898 0 -819 1
-897 17 -948 23 -74 83 -131 165 -156 83 -25 270 -22 376 6 347 92 563 415
597 896 37 534 -164 925 -551 1066 -125 46 -210 61 -369 65 -110 3 -154 1
-183 -10z"/>
</g>
</svg>
